<svg version="1.1" xmlns="http://www.w3.org/2000/svg" viewBox="0 0 651.005523057282 318" width="651.005523057282" height="318">
  <!-- svg-source:excalidraw -->
  
  <defs>
    <style class="style-fonts">
      @font-face {
        font-family: "Virgil";
        src: url("https://excalidraw.com/Virgil.woff2");
      }
      @font-face {
        font-family: "Cascadia";
        src: url("https://excalidraw.com/Cascadia.woff2");
      }
      @font-face {
        font-family: "Assistant";
        src: url("https://excalidraw.com/Assistant-Regular.woff2");
      }
    </style>
    
  </defs>
  <rect x="0" y="0" width="651.005523057282" height="318" fill="#ffffff"></rect><g stroke-linecap="round" transform="translate(11.475673346230764 10) rotate(0 94.5 145)"><path d="M32 0 C69.08 2.41, 105.11 0.68, 157 0 M32 0 C60.96 0.33, 88.51 -0.13, 157 0 M157 0 C177.54 0.35, 187.89 12.01, 189 32 M157 0 C179.25 1.06, 188.66 11.27, 189 32 M189 32 C187.2 85.99, 187.69 135.9, 189 258 M189 32 C186.98 119.11, 188.01 206.86, 189 258 M189 258 C188.82 278.04, 180.31 291.78, 157 290 M189 258 C190.05 277.65, 178.74 290.61, 157 290 M157 290 C125.51 290.82, 92.54 288.78, 32 290 M157 290 C119.35 289.58, 80.36 290.96, 32 290 M32 290 C10.69 289.87, 1.38 280.26, 0 258 M32 290 C8.64 288.04, -1.34 279.41, 0 258 M0 258 C-2.68 173.59, -0.53 92.63, 0 32 M0 258 C-0.52 210.82, 0.62 161.93, 0 32 M0 32 C1.57 12.53, 10.42 -1.51, 32 0 M0 32 C0.18 10.35, 9.72 0.67, 32 0" stroke="#1e1e1e" stroke-width="2" fill="none"></path></g><g stroke-linecap="round"><g transform="translate(11.475673346230764 98) rotate(0 94.81810232139658 -0.5545420279780728)"><path d="M-0.01 -0.17 C31.89 -0.23, 159.13 0.29, 191.11 0.46 M-1.48 -1.31 C30.3 -1.8, 158.04 -1.47, 190.22 -1.42" stroke="#1e1e1e" stroke-width="2" fill="none"></path></g></g><mask></mask><g stroke-linecap="round" transform="translate(471.4756733462308 29) rotate(0 84 139.5)"><path d="M32 0 C56.61 0.3, 83.86 -2.45, 136 0 M32 0 C64.95 1.39, 98.25 0.42, 136 0 M136 0 C157.01 -1, 166.71 11.98, 168 32 M136 0 C159.52 1.2, 169.52 12.64, 168 32 M168 32 C170.16 103.49, 167.13 173.6, 168 247 M168 32 C166.94 104.34, 167.86 178.24, 168 247 M168 247 C166.67 269.9, 157.18 279.37, 136 279 M168 247 C168.6 268.39, 158.95 277.3, 136 279 M136 279 C97.53 278.34, 55.58 279.89, 32 279 M136 279 C101.09 279.32, 66.04 278.76, 32 279 M32 279 C8.81 277.89, 0.8 268.21, 0 247 M32 279 C10.27 278.42, -0.3 268.82, 0 247 M0 247 C-2.84 189.92, 0.23 134.09, 0 32 M0 247 C1.04 197.61, 0.69 147.7, 0 32 M0 32 C1.08 10.61, 9.82 0.74, 32 0 M0 32 C-0.68 8.74, 9.27 -1.66, 32 0" stroke="#1e1e1e" stroke-width="2" fill="none"></path></g><g stroke-linecap="round"><g transform="translate(476.4756733462308 103) rotate(0 81.63143032594581 -0.45451883971225016)"><path d="M0.13 0.54 C27.01 0.52, 134.88 0.55, 162.22 0.1 M-1.27 -0.23 C25.92 -0.58, 136.98 -1.24, 164.53 -1.44" stroke="#1e1e1e" stroke-width="2" fill="none"></path></g></g><mask></mask><g transform="translate(64.08569684476592 41.5) rotate(0 26.389976501464844 12.5)"><text x="0" y="17.52" font-family="Virgil, Segoe UI Emoji" font-size="20px" fill="#1e1e1e" text-anchor="start" style="white-space: pre;" direction="ltr" dominant-baseline="alphabetic">album</text></g><g transform="translate(40.81582227201204 150.5) rotate(0 55.609947204589844 50)"><text x="0" y="17.52" font-family="Virgil, Segoe UI Emoji" font-size="20px" fill="#1e1e1e" text-anchor="start" style="white-space: pre;" direction="ltr" dominant-baseline="alphabetic">titre, </text><text x="0" y="42.519999999999996" font-family="Virgil, Segoe UI Emoji" font-size="20px" fill="#1e1e1e" text-anchor="start" style="white-space: pre;" direction="ltr" dominant-baseline="alphabetic">un genre</text><text x="0" y="67.52" font-family="Virgil, Segoe UI Emoji" font-size="20px" fill="#1e1e1e" text-anchor="start" style="white-space: pre;" direction="ltr" dominant-baseline="alphabetic">une image </text><text x="0" y="92.52" font-family="Virgil, Segoe UI Emoji" font-size="20px" fill="#1e1e1e" text-anchor="start" style="white-space: pre;" direction="ltr" dominant-baseline="alphabetic">un artiste</text></g><g transform="translate(526.3757130190824 45.5) rotate(0 29.099960327148438 12.5)"><text x="0" y="17.52" font-family="Virgil, Segoe UI Emoji" font-size="20px" fill="#1e1e1e" text-anchor="start" style="white-space: pre;" direction="ltr" dominant-baseline="alphabetic">pistes</text></g><g transform="translate(488.62578931302767 164.5) rotate(0 67.61993408203125 37.5)"><text x="0" y="17.52" font-family="Virgil, Segoe UI Emoji" font-size="20px" fill="#1e1e1e" text-anchor="start" style="white-space: pre;" direction="ltr" dominant-baseline="alphabetic">un titre </text><text x="0" y="42.519999999999996" font-family="Virgil, Segoe UI Emoji" font-size="20px" fill="#1e1e1e" text-anchor="start" style="white-space: pre;" direction="ltr" dominant-baseline="alphabetic">une URL </text><text x="0" y="67.52" font-family="Virgil, Segoe UI Emoji" font-size="20px" fill="#1e1e1e" text-anchor="start" style="white-space: pre;" direction="ltr" dominant-baseline="alphabetic">YouTube.</text></g><g stroke-linecap="round"><g transform="translate(201.47567334623076 174) rotate(0 133.6055551585695 0.5466950736661147)"><path d="M0.26 -0.02 C45.1 0.04, 223.54 0.75, 268.27 1.1 M-1.06 -1.08 C43.7 -0.95, 222.59 1.42, 267.46 2.17" stroke="#1e1e1e" stroke-width="2" fill="none"></path></g></g><mask></mask><g transform="translate(202.75567975492223 144.5) rotate(0 14.21999359130858 12.5)"><text x="0" y="17.52" font-family="Virgil, Segoe UI Emoji" font-size="20px" fill="#1e1e1e" text-anchor="start" style="white-space: pre;" direction="ltr" dominant-baseline="alphabetic">1,N</text></g><g transform="translate(43.475673346230764 117) rotate(0 42.52996063232422 12.5)"><text x="0" y="17.52" font-family="Virgil, Segoe UI Emoji" font-size="20px" fill="#1e1e1e" text-anchor="start" style="white-space: pre;" direction="ltr" dominant-baseline="alphabetic">id_album</text></g><g transform="translate(503.4756733462308 123) rotate(0 39.80995178222656 12.5)"><text x="0" y="17.52" font-family="Virgil, Segoe UI Emoji" font-size="20px" fill="#1e1e1e" text-anchor="start" style="white-space: pre;" direction="ltr" dominant-baseline="alphabetic">id_piste</text></g><g transform="translate(432.7556797549222 150.5) rotate(0 11.719993591308594 12.5)"><text x="0" y="17.52" font-family="Virgil, Segoe UI Emoji" font-size="20px" fill="#1e1e1e" text-anchor="start" style="white-space: pre;" direction="ltr" dominant-baseline="alphabetic">N,1</text></g></svg>